<?xml version="1.0" encoding="utf-8"?>
<!-- Generator: Adobe Illustrator 24.0.0, SVG Export Plug-In . SVG Version: 6.00 Build 0)  -->
<svg version="1.1" id="图层_1" xmlns="http://www.w3.org/2000/svg" xmlns:xlink="http://www.w3.org/1999/xlink" x="0px" y="0px"
	 viewBox="0 0 16 16" style="enable-background:new 0 0 16 16;" xml:space="preserve">
<style type="text/css">
	.st0{fill:#FBB03B;}
</style>
<text transform="matrix(1 0 0 1 -87 5)" style="display:none;fill:#808080;enable-background:new    ; font-family:'SourceHanSansCN-Regular-GBpc-EUC-H'; font-size:72px;">果</text>
<text transform="matrix(1 0 0 1 -87 73)" style="display:none;fill:#808080;enable-background:new    ; font-family:'SourceHanSansCN-Regular-GBpc-EUC-H'; font-size:72px;">粒</text>
<g>
	<path class="st0" d="M6.66,1.61C6.1,1.84,5.43,2.05,4.7,2.21v2.64h1.93v1.09H4.7V6.9C5.14,7.28,6.49,8.68,6.8,9.03L6.1,9.95
		C5.84,9.51,5.22,8.68,4.7,8.03v6.67H3.55V7.84C2.92,9.4,2.1,10.93,1.31,11.89c-0.12-0.33-0.4-0.79-0.6-1.07
		c1-1.1,2.07-3.11,2.68-4.89H1.03V4.86h2.52V2.48C2.78,2.64,2.01,2.78,1.28,2.87c-0.04-0.25-0.2-0.63-0.34-0.88
		c1.73-0.29,3.77-0.74,4.91-1.27L6.66,1.61z M10.23,10.25V8.39H6.85V7.36h7.98v1.01h-3.45v1.87h3.11v1h-3.11v2.03h3.79v1.01H6.17
		v-1.01h4.07v-2.03H7.19v-0.99H10.23z M14.3,1.15v4.85H7.41V1.15H14.3z M8.49,5h4.67V2.16H8.49V5z"/>
</g>
</svg>
